<svg xmlns="http://www.w3.org/2000/svg" xmlns:xlink="http://www.w3.org/1999/xlink" viewBox="0 0 315 405.67"><defs><style>.cls-1{fill:none;}.cls-2{fill:#2f1a41;}.cls-3{fill:#e63960;}.cls-4{fill:#f1ab48;}.cls-5{fill:#7ccdce;}.cls-6{fill:#ee9333;}.cls-7{fill:#51b8b7;}.cls-8{fill:#20082f;}.cls-9{fill:#91d5e4;}.cls-10{fill:#f4c465;}.cls-11{fill:#fff;}.cls-12{clip-path:url(#clip-path);}.cls-13{fill:#e4f3f6;}</style><clipPath id="clip-path"><circle class="cls-1" cx="157.5" cy="62.03" r="52.34" transform="translate(71.42 207.79) rotate(-80.93)"/></clipPath></defs><g id="Capa_2" data-name="Capa 2"><g id="OBJECTS"><rect class="cls-2" width="315" height="405.67" rx="22"/><path class="cls-3" d="M116.18,113.45c-5-4.9-11-9.53-18-9.71-8.55-.21-15.8,6.26-24.16,8a23.11,23.11,0,0,1-24.2-11c-3.8-6.8-3.82-15-5.79-22.53S36.6,62.77,28.81,62.79c-11,0-16,14.73-26.29,18.42A13.5,13.5,0,0,1,0,81.85V184.57a161.14,161.14,0,0,0,24.35,1.88c27.26.26,55.13-4.43,78.88-17.82,7.06-4,13.82-8.81,18.59-15.36s7.32-15.05,5.39-22.92C125.59,123.73,121,118.23,116.18,113.45Z"/><path class="cls-3" d="M.33,18.25a31.16,31.16,0,0,1,10,3.47A48.69,48.69,0,0,1,26.74,36.36c4.78,6.8,8.37,15.34,16,18.6,6.54,2.8,14.37.65,20-3.68s9.51-10.54,13-16.71c4.56-8,8.87-16.34,10-25.44A33.25,33.25,0,0,0,85.71,0H22A22,22,0,0,0,.33,18.25Z"/><path class="cls-3" d="M293,0H214.27c5.81,1.93,10.5,7.57,12.54,13.59,2.65,7.8,2.14,16.26,2.89,24.46a79.4,79.4,0,0,0,3.14,16c1.73,5.67,4.2,11.28,8.41,15.46s10.45,6.66,16.19,5.17c5.27-1.36,9.17-5.65,13.42-9s10.11-6.11,15-3.73c3.51,1.71,5.46,5.63,6.05,9.48s.08,7.79,0,11.69c-.18,8,1.62,16.34,6.39,22.83a24.43,24.43,0,0,0,16.69,10V22A22,22,0,0,0,293,0Z"/><path class="cls-4" d="M315,68.63V22A22,22,0,0,0,293,0H225.54c5,3.23,9.75,7,11.82,12.48,2.62,7,.15,14.73.67,22.15.58,8.15,4.89,15.77,10.86,21.35s13.5,9.29,21.29,11.78A79.06,79.06,0,0,0,315,68.63Z"/><path class="cls-4" d="M91.89,110.9c-5.73-9-11.21-18.39-18.9-25.82S54.88,72.27,44.23,73.26C29.67,74.63,19,86.89,7.5,95.91A90.73,90.73,0,0,1,0,101.22v96.84c23.27,5.24,48,5,71.67,1a107.73,107.73,0,0,0,22.8-6c12.72-5.19,23.63-14.06,33.14-24,6-6.25,11.79-13.58,12.41-22.22-9.57-2.91-19.34-5.92-27.48-11.74C103.85,129,97.61,119.93,91.89,110.9Z"/><path class="cls-5" d="M315,88.52c-6,2.36-11.75,6.3-17.63,9.15-13.52,6.55-31.06,7-42.47-2.78-2.71-2.31-5.1-5.19-8.43-6.47-3-1.16-6.31-.87-9.42-.15-5.27,1.21-10.42,3.73-13.75,8-3.6,4.61-4.67,10.64-6.73,16.12a45.94,45.94,0,0,1-32.06,28.09l-3.06,22.92c-1.66,4.32.28,9.38,3.61,12.58s7.82,4.91,12.23,6.3c39.14,12.34,83.62,5.26,117.71-17.51Z"/><path class="cls-5" d="M22,0A22,22,0,0,0,0,22V36.91a32.36,32.36,0,0,1,13.84-5.3C36,29.07,52,49.31,75,40.67,94.34,33.42,112.41,19.93,116.93,0Z"/><path class="cls-6" d="M293,0H251.48a19.31,19.31,0,0,1,1.06,6.7c0,4.61-1.12,9.2-.77,13.8a22.22,22.22,0,0,0,3.11,9.69,14.51,14.51,0,0,0,7.35,6.46c3.14,1.09,7,.49,9.2-2,1.86-2.08,2.32-5,3.41-7.59a12,12,0,0,1,7.67-7.16c3.5-.9,7.68.6,9.24,3.87.79,1.64.88,3.52,1.26,5.3,2,9.3,11.44,14.72,19.94,19,.67.34,1.36.68,2.05,1V22A22,22,0,0,0,293,0Z"/><path class="cls-6" d="M275.29,46.91c-.31,3.4-.22,7.4,2.49,9.47,3.11,2.37,7.74.64,10.54-2.08,3.52-3.43,5.58-8.72,4-13.38s-7.43-7.75-11.74-5.4C276.77,37.61,275.7,42.56,275.29,46.91Z"/><path class="cls-7" d="M315,164.76V107.49c-4.36,3.08-8.49,6.56-13.4,8.62-7.2,3-15.31,2.67-23.1,2.27-5.83-.3-11.88-.66-17-3.43-2.87-1.54-5.32-3.77-8.1-5.46a25.38,25.38,0,0,0-13.8-3.62,9.92,9.92,0,0,0-4.81,1.14c-4.2,2.49-3.95,8.77-1.93,13.22s5.32,8.55,5.57,13.42c.42,8-7.14,13.76-13.69,18.33S211,163.3,212.81,171.09c1.41,6.2,7.92,9.72,14,11.68A94.39,94.39,0,0,0,255.41,187,141,141,0,0,0,315,164.76Z"/><path class="cls-7" d="M61.31,0H22A21.94,21.94,0,0,0,5.64,7.3a27.52,27.52,0,0,1,5,.11c7.71.85,14.78,4.55,21.64,8.18l15,7.93C52.32,26.2,58,29,63.54,27.52a5.87,5.87,0,0,0,4-2.86c1.16-2.47-.56-5.37-2.66-7.13s-4.67-3.06-6.12-5.38C56.4,8.34,58.14,3.31,61.31,0Z"/><path class="cls-7" d="M93.56,14.54a6.81,6.81,0,0,0-.19-3.44,6.93,6.93,0,0,0-1.24-2.3c-2-2.5-5.43-3.37-8.61-3.88-3-.48-6.58-.52-8.34,1.92-1.53,2.14-.83,5.17.5,7.44,2,3.32,5.34,6,9.18,6.27S92.79,18.32,93.56,14.54Z"/><path class="cls-6" d="M0,116.44v35.64a102.43,102.43,0,0,0,20.32,5.69c18.77,3.66,39.92,5.2,55.36-6.08,7.85-5.74,13.59-15.57,11.42-25-2.37-10.29-13.3-16.71-23.83-17.59-5.94-.49-13-.08-16.64-4.78-2.72-3.48-2.73-9-6.49-11.33A9.52,9.52,0,0,0,34,92c-8.71,1-16.19,6.61-22.47,12.73C7.59,108.57,3.94,112.69,0,116.44Z"/><path class="cls-6" d="M49.69,92.59a13.81,13.81,0,0,0,0,5.69C52,107,64.93,100.05,64.16,92.82c-.64-5.94-9.3-9-13.15-4A8.2,8.2,0,0,0,49.69,92.59Z"/><path class="cls-8" d="M206.06,8.48c-2.87-1.39-5.77-2.3-8-1.91C189.85,8,200.76,19,203.81,22.41A28.47,28.47,0,0,1,209,31.68c1,2.83,1.91,5.94,4.26,7.82,3.35,2.69,9.11,1.26,10.82-2.69a10.87,10.87,0,0,0,.72-4.46c-.06-7.07-3.89-13.18-9.19-17.61A52,52,0,0,0,206.06,8.48Z"/><path class="cls-4" d="M224.58,57.58a3.84,3.84,0,0,0,1.4-1.86c1.27-3-.34-8.87-4-9.76-5.42-1.3-8.1,7.17-4.95,10.67,1.21,1.34,3.24,1.43,5,1.42A4.77,4.77,0,0,0,224.58,57.58Z"/><path class="cls-8" d="M215.64,104.58c-5,8.18-13.34,14.86-22.91,15.83-3.23.33-6.74-.08-9.23-2.17a4.38,4.38,0,0,1-1.38-1.84,4.09,4.09,0,0,1,1.48-4.2,14.74,14.74,0,0,1,4.2-2.14,47.57,47.57,0,0,0,22.59-18.88c1-1.55,2.3-3.4,4.11-3.12a3.47,3.47,0,0,1,1.79,1,9.24,9.24,0,0,1,2.42,7.75A19.37,19.37,0,0,1,215.64,104.58Z"/><path class="cls-3" d="M281.93,86a6.34,6.34,0,0,0,0-5.74,5.71,5.71,0,0,0-4.83-3,7.9,7.9,0,0,0-5.31,2.42,9.48,9.48,0,0,0-3.24,6.19,5.63,5.63,0,0,0,3.5,5.66c2.48.81,5.13-.63,7.13-2.31A10.6,10.6,0,0,0,281.93,86Z"/><path class="cls-8" d="M86.69,42.24a7.16,7.16,0,0,1,2.55-1.43,5.34,5.34,0,0,1,3.11.22,7.93,7.93,0,0,1,4.77,4.72,10.16,10.16,0,0,1-.81,7.93A23.57,23.57,0,0,1,91.17,60a40,40,0,0,1-4.94,4.07,31.22,31.22,0,0,1-20.57,5A9.83,9.83,0,0,1,61,67.69a4.13,4.13,0,0,1-1.84-4.26,5.73,5.73,0,0,1,2.88-3c3.62-2.16,7.64-3.57,11.14-5.91C78.21,51.1,81.88,46,86.69,42.24Z"/><path class="cls-4" d="M94.26,81.21A7.83,7.83,0,0,0,91.64,79c-1.65-.94-3.7-1.53-5.42-.73-2.43,1.11-3,4.29-2.93,7s.58,5.62,2.4,7.66S91,95.6,93,93.71a7.93,7.93,0,0,0,1.84-4.24C95.4,86.69,95.87,83.56,94.26,81.21Z"/><path class="cls-3" d="M8.28,45c1.9,1.19,2.13,4,1.37,6.06s-2.22,3.9-3.09,6a11.39,11.39,0,0,0-.87,4.86A3.62,3.62,0,0,0,6.3,64a3.23,3.23,0,0,0,1.45,1c3.19,1.21,6.91-.29,9.2-2.82s3.42-5.87,4.3-9.15c1-3.85,1.7-8.35-.77-11.47-2-2.56-5.54-3.34-8.79-3.62a4.83,4.83,0,0,0-3.17.48c-1.5,1-1.46,3.21-1.26,5a1.92,1.92,0,0,0,.36,1.12A3.15,3.15,0,0,0,8.28,45Z"/><path class="cls-5" d="M128.18,4.53c1.44-.2,2.36.69,2,3.55a12.17,12.17,0,0,1-10.39,10.36c-4.62.53-2.16-4.61-.92-6.68C120,10,125.2,4.94,128.18,4.53Z"/><path class="cls-9" d="M25.17,17.86A18.59,18.59,0,0,0,9.61,18c-1.56.75-3.12,1.86-3.57,3.53-.57,2.15,1,4.4,3,5.36s4.33.93,6.55.88l9.52-.19A6.38,6.38,0,0,0,28.26,27c1.73-1,2.14-3.48,1.31-5.29A8.54,8.54,0,0,0,25.17,17.86Z"/><path class="cls-9" d="M105.76,7a5.9,5.9,0,0,1,.52,1.11c1.4,3.93,0,9.93-5.18,9.74-7-.25-2.84-14,1.83-13A4.47,4.47,0,0,1,105.76,7Z"/><path class="cls-9" d="M298.33,103c1.77-1.4,3.93-2.91,6.1-2.27,2.56.76,3.35,4.3,2.14,6.68s-3.73,3.78-6.16,4.87c-6.85,3.06-14.57,4.77-21.88,3.12-3.34-.75-8.59-4.09-4.74-6.93,3.33-2.45,11.71.57,15.8-.45C292.87,107.17,295.67,105.07,298.33,103Z"/><path class="cls-9" d="M231.35,95.18a12.41,12.41,0,0,1,5.05-3c2.82-.6,7.43,1.87,7.29,5-.25,5.3-9.35,7.19-12.84,9.73a5.15,5.15,0,0,1-1.68.93c-2.18.59-4.16-1.93-4-4.17C225.51,100.29,228.84,97.25,231.35,95.18Z"/><path class="cls-10" d="M254.15,52.92A18.69,18.69,0,0,1,246,42a39.09,39.09,0,0,1-1.18-13.81,1.56,1.56,0,0,1,.18-.74c.71-1,2.13.81,3.37.68-.55,3.6,2.13,6.91,5.05,9.1s6.33,3.93,8.39,6.94,1.95,8-1.35,9.53C258.48,54.67,256.07,54,254.15,52.92Z"/><path class="cls-10" d="M300.51,63.28a7.5,7.5,0,0,0,7.15-.8,6,6,0,0,0,2.11-6.67A3.65,3.65,0,0,0,308.41,54a4.84,4.84,0,0,0-1.56-.59,10.11,10.11,0,0,0-7,.53c-2.1,1.11-3.56,3.63-2.89,5.91A5.71,5.71,0,0,0,300.51,63.28Z"/><path class="cls-10" d="M74,98.8a7.15,7.15,0,0,0-5.53.46c-1.62,1-2.48,3.34-1.4,4.91,1.31,1.91,4.22,1.53,6.36,2.44,2.54,1.07,3.84,3.93,6.13,5.48a3.41,3.41,0,0,0,2,.67A2.85,2.85,0,0,0,84,110.4a6,6,0,0,0-.58-3.56A14.35,14.35,0,0,0,74,98.8Z"/><path class="cls-10" d="M32.63,82.15c-1.86,2-1.81,4.15,2.31,5.11,3.78.89,7.72-.47,11.26-2.07A5.73,5.73,0,0,0,49.08,83c1-1.88-.43-4.34-2.41-5.15C42.63,76.21,35.44,79.08,32.63,82.15Z"/><circle class="cls-8" cx="151.38" cy="67.16" r="52.34"/><circle class="cls-11" cx="157.5" cy="62.03" r="52.34" transform="translate(71.42 207.79) rotate(-80.93)"/><g class="cls-12"><path class="cls-2" d="M118.6,100.13c-.72-.64,2.1-10,7.91-12.33s16.28-.23,20.23-7.67,1.86-10,1.86-10-6.47-4.64-6.93-12.32a6.54,6.54,0,0,1-3.3-4.66c-.74-3.95,1.16-5.81,1.16-5.81S135.35,45,135.81,38s6.75-11.39,6.75-11.39.93-9.07,17.67-8.61,22.09,16.51,17.68,28.61c0,0,3,6.74-2.1,10.7,0,0-2.14,9.48-8,12.54-.46.24-1.33,8.15,4.48,12.34s16.52,4,20.24,6.74,3.95,11.17,3.95,11.17S158.14,135,118.6,100.13Z"/><path class="cls-8" d="M168.2,76.44c-1.08-3.32-.65-6.41-.36-6.56,0,0-8.43,5.67-19.24.25a1.27,1.27,0,0,1,.16.27C149.69,71.88,154.83,78.85,168.2,76.44Z"/></g><path class="cls-11" d="M157.5,9.69A52.34,52.34,0,1,0,209.84,62,52.34,52.34,0,0,0,157.5,9.69Zm0,99.68A47.34,47.34,0,1,1,204.84,62,47.33,47.33,0,0,1,157.5,109.37Z"/><polygon class="cls-11" points="42.67 20.19 40.43 21.42 39.21 23.65 37.99 21.42 35.75 20.19 37.99 18.97 39.21 16.73 40.43 18.97 42.67 20.19"/><polygon class="cls-11" points="93.82 73.43 91.59 74.65 90.36 76.89 89.14 74.65 86.91 73.43 89.14 72.21 90.36 69.97 91.59 72.21 93.82 73.43"/><polygon class="cls-11" points="200.54 11.93 198.31 13.15 197.09 15.39 195.86 13.15 193.63 11.93 195.86 10.71 197.09 8.47 198.31 10.71 200.54 11.93"/><polygon class="cls-11" points="240.54 73.93 238.31 75.15 237.09 77.39 235.86 75.15 233.63 73.93 235.86 72.71 237.09 70.47 238.31 72.71 240.54 73.93"/><polygon class="cls-11" points="289.54 22.43 287.31 23.65 286.08 25.89 284.86 23.65 282.63 22.43 284.86 21.21 286.08 18.97 287.31 21.21 289.54 22.43"/><polygon class="cls-11" points="198.99 116.93 196.75 118.15 195.53 120.39 194.31 118.15 192.07 116.93 194.31 115.71 195.53 113.47 196.75 115.71 198.99 116.93"/><polygon class="cls-11" points="293.04 108.93 290.81 110.15 289.58 112.39 288.36 110.15 286.13 108.93 288.36 107.71 289.58 105.47 290.81 107.71 293.04 108.93"/><polygon class="cls-11" points="116.29 11.93 114.06 13.15 112.83 15.39 111.61 13.15 109.38 11.93 111.61 10.71 112.83 8.47 114.06 10.71 116.29 11.93"/><polygon class="cls-11" points="36.21 90.81 33.97 92.03 32.75 94.27 31.52 92.03 29.29 90.81 31.52 89.58 32.75 87.35 33.97 89.58 36.21 90.81"/><polygon class="cls-11" points="69.72 118.15 67.49 119.37 66.27 121.61 65.04 119.37 62.81 118.15 65.04 116.93 66.27 114.69 67.49 116.93 69.72 118.15"/><polygon class="cls-11" points="25.49 50.21 23.25 51.43 22.03 53.67 20.81 51.43 18.57 50.21 20.81 48.98 22.03 46.75 23.25 48.98 25.49 50.21"/><path class="cls-2" d="M62.89,126.56a8.66,8.66,0,0,1-.44,7.84,17.69,17.69,0,0,1-5.63,5.82c-12.66,8.83-31,8.59-43.39-.58a6.06,6.06,0,0,1-2.69-3.41,6.16,6.16,0,0,1,.51-3.18,51.39,51.39,0,0,1,4.36-9.1c2.14-3.56,4.88-7,8.69-8.67a20,20,0,0,1,8.49-1.35,47,47,0,0,1,26.09,8.51A12,12,0,0,1,62.89,126.56Z"/><path class="cls-2" d="M49.79,0H23.69a24,24,0,0,0,4.93,5.7c3.49,2.63,8.13,3,12.49,3.33a8.51,8.51,0,0,0,3.45-.22,7,7,0,0,0,3.33-3A11.49,11.49,0,0,0,49.79,0Z"/><path class="cls-2" d="M293,0H263c.32.69.66,1.38,1,2,2.13,3.64,5.49,6.73,9.59,7.71,6.58,1.57,13.81-2.45,20.09.06s9,10.32,15.4,12.13a10.69,10.69,0,0,0,5.83-.07A22,22,0,0,0,293,0Z"/><path class="cls-2" d="M315,117.36c-10.08,1.77-15.9,13.35-25.72,16.42-8.56,2.68-17.82-1.9-24.33-8.06-2.91-2.76-5.57-5.89-9.08-7.81s-8.27-2.33-11.27.32c-2.37,2.11-3,5.66-2.41,8.77a22.25,22.25,0,0,0,4.28,8.43l16.2,14.78c7.64,6.07,17.68,8.71,27.42,8.24A58.36,58.36,0,0,0,315,151Z"/><path class="cls-13" d="M133.29,404.5c-5.76-6.87-15.72-8.36-24.68-8s-18.12,2-26.75-.45c-12.7-3.59-21.59-15.61-25.21-28.31-3.47-12.19-3-25.41-7.83-37.12-1.61-3.91-3.88-7.67-7.24-10.23-4.67-3.54-10.88-4.35-16.73-4.12A50.77,50.77,0,0,0,0,324v59.71a22,22,0,0,0,22,22H134.18C133.9,405.27,133.61,404.88,133.29,404.5Z"/><path class="cls-13" d="M293,405.67a22,22,0,0,0,22-22V280.61a64,64,0,0,0-14.53,7.13c-11.63,7.22-23.74,15.73-32.56,26.77-11.06,13.86-12.28,27.32-14.68,44.17-1.65,11.6-5.94,24.1-16.21,29.76-4.82,2.65-10.39,3.46-15.78,4.58s-10.94,2.69-14.94,6.47a14.06,14.06,0,0,0-3.79,6.18Z"/><path class="cls-13" d="M237.69,287c-7.23,6.53-9.77,16.7-11.26,26.33-.91,5.9-1.55,12-.44,17.83s4.21,11.62,9.33,14.7c2.57,1.56,5.94,2.34,8.55.84,4-2.33,3.71-8.06,4.25-12.68,1.61-13.89,14.78-23.6,19.25-36.85,1.52-4.48,1.86-9.83-1-13.6-4.21-5.56-12.82-4.89-19.27-2.25A32.14,32.14,0,0,0,237.69,287Z"/><path class="cls-13" d="M77.94,356.28a46,46,0,0,0,1.89-11.69,36.53,36.53,0,0,0-3.37-16c-.91-2-2.22-4-4.32-4.57-2.29-.59-4.63.91-6.15,2.73-3.14,3.74-4.11,8.8-4.7,13.64q-.67,5.58-.87,11.19c-.11,3.15-.08,6.4,1.14,9.3s3.94,5.38,7.09,5.42C73.55,366.32,76.59,361,77.94,356.28Z"/><circle class="cls-2" cx="25.81" cy="106.4" r="3.5"/><path class="cls-2" d="M53.79,15.12l-.17-.24a1.55,1.55,0,0,0-2.63,0l-.16.24a1.71,1.71,0,1,0,3,0Z"/><path class="cls-2" d="M263.81,9.33A2.66,2.66,0,1,0,266.46,12,2.68,2.68,0,0,0,263.81,9.33Z"/><path class="cls-2" d="M306.81,26.16c-2.57,0-2.57,4,0,4S309.38,26.16,306.81,26.16Z"/><path class="cls-2" d="M294.31,119.07a1.58,1.58,0,0,0,0,3.16A1.58,1.58,0,0,0,294.31,119.07Z"/><path class="cls-2" d="M236.81,111c-3.4,0-3.4,5.27,0,5.27S240.21,111,236.81,111Z"/></g></g></svg>