<svg xmlns="http://www.w3.org/2000/svg" viewBox="0 0 306.22 306.5"><defs><style>.cls-1{fill:#75563a;}.cls-2{fill:#fbc9a2;}.cls-3{fill:#b28356;}.cls-19,.cls-26,.cls-4{fill:#442849;}.cls-5{fill:#ffad5f;}.cls-6{fill:#f2923a;}.cls-26,.cls-7{opacity:0.5;}.cls-8{fill:#fff;}.cls-9{fill:#ae3e58;}.cls-10{fill:#ffdb85;}.cls-11{fill:#ffd06b;}.cls-12{fill:#ffa959;}.cls-13{fill:#5a4a49;}.cls-14{fill:#c7b7af;}.cls-15{fill:#8a7675;}.cls-16{fill:#e0d4bb;}.cls-17{fill:#ffeed0;}.cls-18{fill:#95a4b1;}.cls-19{opacity:0.3;}.cls-20{fill:#d6cfbe;}.cls-21{fill:#797d9b;}.cls-22{fill:#ffa8ad;}.cls-23{fill:#ff879a;}.cls-24{fill:#c3d2d7;}.cls-25{fill:#bd4e5a;}.cls-27{fill:#ffb099;}.cls-28{fill:#ff6b86;}.cls-29{fill:#41a9bd;}</style></defs><g id="Capa_2" data-name="Capa 2"><path class="cls-1" d="M162.76,30c0-.06-.6-1.61-1.31-3.64A120,120,0,0,1,156.4,7l-.89-5.12a2.24,2.24,0,0,0-4.21-.62l-6.59,13.22a17.71,17.71,0,0,0-1.52,11.43L145,35Z"/><path class="cls-2" d="M146.14,27a18.61,18.61,0,0,1,.94-9.24l3.8-10,.21,1.61A158.09,158.09,0,0,0,155,29.25c0,.08.41,1.53.43,1.61l-8.29,2.34Z"/><path class="cls-1" d="M178,32.37a286,286,0,0,0,22.6-22.26A3.7,3.7,0,0,1,206.94,12l1.67,9.39a20,20,0,0,1-3.24,14.89L195.16,51Z"/><path class="cls-2" d="M184,34.78c7.07-6.38,13.88-13.16,20.27-20.2a.24.24,0,0,1,.19-.09.29.29,0,0,1,.31.24l1.67,9.39a16.57,16.57,0,0,1-2.69,12.36L196,47.77Z"/><path class="cls-1" d="M185.37,98.36V76a2.33,2.33,0,0,0-3.91-1.71,40.05,40.05,0,0,1-12.83,8l-26.8,10.29v0l-6.26,23.26a18.11,18.11,0,0,1-13.15,12.87l-24.22,6-1.86,29.19,104.52-1.66L189,122.91A84.71,84.71,0,0,1,185.37,98.36Z"/><path class="cls-3" d="M198,111V55.15A19.17,19.17,0,0,0,190.57,40l-12.2-9.5a17,17,0,0,0-15.31-2.84l-15.16,4.6a14.3,14.3,0,0,0-8.51,7L132.8,51.75l9,40.81L169.45,82a42.21,42.21,0,0,0,12.08-7.72A2.33,2.33,0,0,1,185.37,76V98.36A84.71,84.71,0,0,0,189,122.91l11.87,39.31,21.32-.34Z"/><path class="cls-2" d="M132.8,51.75,108.45,62.28a8.84,8.84,0,0,0-4.31,12.23L107.56,81a16.37,16.37,0,0,0,12.28,8.6l21.93,3a17.09,17.09,0,0,0,14.37-4.83L171,72.92a3.33,3.33,0,0,0-1.28-5.5h0a3.29,3.29,0,0,0-1.94-.06h0a11.32,11.32,0,0,1-12-4.17l-5.3-7.12A8.56,8.56,0,0,1,149,49l2.74-11.84a.89.89,0,0,0-1.65-.63l-5.44,10.12a8.59,8.59,0,0,1-6.57,4.47Z"/><path class="cls-4" d="M149.28,76.53a.68.68,0,0,0-.9-.34l-8.17,3.64a28.36,28.36,0,0,1-22.3.3l-3.07-1.27-1.12-3.17.06-2.53a.69.69,0,0,0-.67-.7.7.7,0,0,0-.7.67l-.06,2.78,1.16,3.28-.32.33a2.33,2.33,0,0,1-3.2.08l-2-1.76a.68.68,0,0,0-1,0,.67.67,0,0,0,0,1l2,1.77a3.69,3.69,0,0,0,5.07-.14l.31-.31,2.93,1.22a29.74,29.74,0,0,0,23.37-.31l8.18-3.64A.69.69,0,0,0,149.28,76.53Z"/><path class="cls-4" d="M113,75.8a11.58,11.58,0,0,1-7.32-7,2,2,0,0,1,1.58-2.7,32.06,32.06,0,0,1,15.19,1.11,2.05,2.05,0,0,1,.81,3.4A18.69,18.69,0,0,1,113,75.8Z"/><path class="cls-4" d="M169.08,51a3.9,3.9,0,1,1-3.9-3.9A3.9,3.9,0,0,1,169.08,51Z"/><path class="cls-1" d="M172.92,42.5a3.11,3.11,0,0,0,2.11,0c.93-.49.87-1.71.45-2.6a6.83,6.83,0,0,0-4.29-3.51,7.92,7.92,0,0,0-5.82.6c-1.68.9-3,3.06-.53,3.72C167.5,41.38,170.23,41.9,172.92,42.5Z"/><path class="cls-4" d="M143.65,45.37c0,1.91-1,3.46-2.19,3.46s-2.19-1.55-2.19-3.46,1-3.46,2.19-3.46S143.65,43.46,143.65,45.37Z"/><path class="cls-1" d="M148.2,37c.41,0,.87-.13,1.05-.54.28-.62-.22-1.58-.78-2.18a4.85,4.85,0,0,0-3.53-1.75,3,3,0,0,0-2.7,1.9c-.49,1.13-.35,3.19,1.18,3.1S146.61,37.18,148.2,37Z"/><path class="cls-5" d="M27.47,165l257.38-4.09L272.12,235l-1.36,66.39H32.48l7-56.61-1.17-2.08a3.57,3.57,0,0,1,.07-3.64l2.47-4L38,233.24a3.36,3.36,0,0,1-.74-5.08L40,225Z"/><path class="cls-6" d="M272.12,235,132.8,277.52l24.9-1.06A123,123,0,0,0,202.43,266Z"/><path class="cls-6" d="M68.51,265.24l50.82,5.8-20.75,4.14a28.82,28.82,0,0,1-21.69-4.33Z"/><path class="cls-6" d="M43.05,244l32.51-2.73-13.47,4.06a21.1,21.1,0,0,1-10.23.46Z"/><path class="cls-6" d="M46,224.32l21.35-6.12a30.4,30.4,0,0,1,9.1-1.15l24.58.67-25.2,5.82a29.67,29.67,0,0,1-6.77.78Z"/><g class="cls-7"><polygon class="cls-8" points="65.51 209.22 63.68 209.03 64.99 206.17 64.99 206.17 62.94 205.84 64.42 202.89 62.55 202.49 63.79 199.27 61.92 198.85 63.16 195.63 63.16 195.63 61.69 195.1 62.59 192.34 62.59 192.34 60.33 191.63 62.03 189.1 34.5 198.53 38.89 219.5 65.96 211.78 64.36 211.53 65.51 209.22"/></g><polygon class="cls-6" points="27.47 164.97 0 224.32 37.1 210.98 27.47 164.97"/><polygon class="cls-6" points="284.85 160.88 306.23 220.68 276.41 210.03 284.85 160.88"/><polygon class="cls-9" points="55.61 92.22 53.11 103.25 54.36 103.47 58.96 91.31 55.61 92.22"/><polygon class="cls-9" points="47.5 92.95 47.99 104.73 49.19 104.73 50.38 93.3 47.5 92.95"/><path class="cls-10" d="M68.67,67.31a7.25,7.25,0,0,1,1.3-2.4,2.3,2.3,0,0,1,4.16,1.48,6.94,6.94,0,0,1-.61,3,66.24,66.24,0,0,1-6.63,13.19c-.36.55-1.38,2.67-2,2.73-1.14.1-.43-1.94-.33-2.54q.61-3.7,1.57-7.34A83.06,83.06,0,0,1,68.67,67.31Z"/><path class="cls-11" d="M74.41,68a7.33,7.33,0,0,1,2-2,2.65,2.65,0,0,1,2.74-.07,2.93,2.93,0,0,1,1,3,7.73,7.73,0,0,1-1.55,2.89A69.91,69.91,0,0,1,67.85,83.17c-.53.44-2.21,2.28-2.91,2.11-1.17-.28.17-2.14.46-2.73,1.18-2.4,2.47-4.76,3.86-7A85.62,85.62,0,0,1,74.41,68Z"/><path class="cls-12" d="M77.85,71.81a7.26,7.26,0,0,1,2.34-1.39A2.31,2.31,0,0,1,83,73.83a7.17,7.17,0,0,1-2.07,2.25A66.56,66.56,0,0,1,68.46,84c-.58.28-2.55,1.57-3.16,1.28-1-.5.63-1.88,1-2.35q2.45-2.85,5.13-5.48A81.4,81.4,0,0,1,77.85,71.81Z"/><path class="cls-11" d="M51.84,94.37A18.35,18.35,0,0,1,34.47,67.16a14.08,14.08,0,0,1,8.26-6.93,9.57,9.57,0,0,1,10,3c3.81,4.94,1.1,12.88,5,17.72a8,8,0,0,0,4.68,2.72c1.26.24,4.55-.63,4.05,1.45-.37,1.54-2.43,3.38-3.55,4.4a19.07,19.07,0,0,1-4.8,3.2A18.1,18.1,0,0,1,51.84,94.37Z"/><path class="cls-12" d="M62.43,83.66a8,8,0,0,1-4.22-2.21,21,21,0,0,1-21.66-2.19,15.92,15.92,0,0,1-4.26-4.66A18.24,18.24,0,0,0,51.84,94.37a18.1,18.1,0,0,0,6.29-1.66,19.07,19.07,0,0,0,4.8-3.2c1.12-1,3.18-2.86,3.55-4.4C67,83,63.69,83.9,62.43,83.66Z"/><path class="cls-9" d="M51.62,68.49l5.72,2.82-6.61.35a1.42,1.42,0,0,1-1.37-2l.2-.42A1.52,1.52,0,0,1,51.62,68.49Z"/><path class="cls-4" d="M48.59,65.46a1.66,1.66,0,1,1-1.66-1.66A1.66,1.66,0,0,1,48.59,65.46Z"/><path class="cls-13" d="M17.4,103.25c5.75,2.72,13,10.57,13,10.57L16.9,138.37c-.23-9.89-6.71-17.56-6.71-17.56Z"/><path class="cls-4" d="M17.4,103.25l-7.21,17.56a30.63,30.63,0,0,1,3.52,5.55C17.07,121.53,20.2,114.28,17.4,103.25Z"/><path class="cls-13" d="M17.4,103.25a41.19,41.19,0,0,1-9,24.73c-1.06,1.31-2.46,2.66-4.13,2.51-2-.17-3.14-2.34-3.62-4.28A20.71,20.71,0,0,1,1.31,114Z"/><path class="cls-13" d="M86.2,87.18C82,91.94,78.34,102,78.34,102l22.06,17.3c-3.66-9.19-.7-18.79-.7-18.79Z"/><path class="cls-4" d="M86.2,87.18l13.5,13.34A30.61,30.61,0,0,0,98.64,107C93.65,103.88,87.94,98.43,86.2,87.18Z"/><path class="cls-13" d="M86.2,87.18a41.14,41.14,0,0,0,18,19.23c1.48.79,3.29,1.48,4.78.69,1.76-.94,2-3.38,1.65-5.36a20.7,20.7,0,0,0-5.44-11Z"/><path class="cls-14" d="M14.86,138.28l5.75-15.89a25.94,25.94,0,0,1,18.81-16.52l26.14-5.78a25.14,25.14,0,0,1,22.43,6l16.5,15.11A11.37,11.37,0,0,1,107.31,134l-8,19.13a19.22,19.22,0,0,1-15.07,11.64L46.8,170A19.22,19.22,0,0,1,30.07,164L17.31,150.3A11.76,11.76,0,0,1,14.86,138.28Z"/><path class="cls-15" d="M47,118.93a6.84,6.84,0,0,1,4.2.73c1.71,1.12,2.23,3.38,2.22,5.42a16.52,16.52,0,0,1-6.13,12.62,11.34,11.34,0,0,1-5.09,2.42,7,7,0,0,1-5.4-1.26,11.48,11.48,0,0,1-2.9-4.32c-1.6-3.41-2.14-7.23.13-10.52a9.28,9.28,0,0,1,5.81-3.74A48.89,48.89,0,0,1,47,118.93Z"/><circle class="cls-4" cx="42.96" cy="129.56" r="4.35"/><path class="cls-15" d="M44.14,117.08c1.19-.25,2.54-.61,3.11-1.68a2.7,2.7,0,0,0-.68-3.11,5.21,5.21,0,0,0-3.12-1.24,10.58,10.58,0,0,0-7.19,1.88c-1.6,1.13-3.48,4.73-.54,5.59,1,.3,2.34-.18,3.33-.39Z"/><path class="cls-15" d="M69.93,114.76a6.94,6.94,0,0,0-3.54,2.37c-1.11,1.7-.67,4,.16,5.85a16.49,16.49,0,0,0,10.69,9.07,11.13,11.13,0,0,0,5.64.16,6.94,6.94,0,0,0,4.43-3.32,11.58,11.58,0,0,0,.91-5.13c.1-3.77-1-7.48-4.36-9.57A9.27,9.27,0,0,0,77,113.11,49.3,49.3,0,0,0,69.93,114.76Z"/><path class="cls-4" d="M73.94,124.61a4.35,4.35,0,1,0,2.23-5.73A4.36,4.36,0,0,0,73.94,124.61Z"/><path class="cls-15" d="M71.81,111.91c-1.2.26-2.56.47-3.53-.28a2.7,2.7,0,0,1-.63-3.12A5.3,5.3,0,0,1,70,106.12a10.58,10.58,0,0,1,7.33-1.18c1.93.39,5.1,2.92,2.76,4.89-.82.69-2.22.79-3.21,1Z"/><path class="cls-16" d="M52.64,133.6l-2.78,1a12.58,12.58,0,0,0-5.47,3.93h0A12.5,12.5,0,0,1,37.16,143l-6,1.25a6.86,6.86,0,0,0-5.36,5.56h0a6.84,6.84,0,0,0,1.82,5.89l3.84,4a20.75,20.75,0,0,0,18.15,6.13l31.91-5a20.72,20.72,0,0,0,15.81-12.14l2.4-5.44a7.86,7.86,0,0,0-1.5-8.59h0a7.87,7.87,0,0,0-7.71-2.17l-2.35.62a11.37,11.37,0,0,1-8.84-1.27h0a11.42,11.42,0,0,0-5.91-1.66H68.51Z"/><path class="cls-8" d="M45.35,154.67a12.11,12.11,0,0,0,5.93-.56,36.36,36.36,0,0,1-3.66-7.81A21.84,21.84,0,0,0,45.35,154.67Z"/><path class="cls-8" d="M87.19,146a21.92,21.92,0,0,0-6.29-5.73A37,37,0,0,1,82,148.86a12.25,12.25,0,0,0,4.75-2.51Z"/><path class="cls-4" d="M94.38,139.77a.69.69,0,0,0-1-.07l-7.14,6.14A11.42,11.42,0,0,1,76,148.23l-6.34-1.65a12.7,12.7,0,0,0-4.5-.32l-.9-6.14a.69.69,0,0,0-.77-.58.7.7,0,0,0-.58.78l.9,6.15a12.79,12.79,0,0,0-4.5,1.88l-5.7,3.84a11.49,11.49,0,0,1-12.08.42l-4.71-2.72a.69.69,0,0,0-.94.25.7.7,0,0,0,.25.93l4.72,2.72a12.83,12.83,0,0,0,13.52-.47l5.71-3.84a11.43,11.43,0,0,1,9.24-1.58l6.33,1.65a12.78,12.78,0,0,0,11.54-2.68l7.14-6.13A.68.68,0,0,0,94.38,139.77Z"/><path class="cls-4" d="M51.92,134.07l.72-.47a25.66,25.66,0,0,1,17.07-4l1.2.14a2.66,2.66,0,0,1,1.87,4.17l-3,4.3a9.15,9.15,0,0,1-11,3.21l-6.41-2.63A2.66,2.66,0,0,1,51.92,134.07Z"/><path class="cls-17" d="M107.91,166.25a22.45,22.45,0,0,0-3.82-9.78c-1.3,1.54-2.74,2.62-4,4.16a19.58,19.58,0,0,1-.76-6.31,11.47,11.47,0,0,0-6,3.75,12.13,12.13,0,0,1,.28-4.87A21.22,21.22,0,0,0,87.28,164a15.33,15.33,0,0,0,.53,9.12,12,12,0,0,0,20,3.4c2.64-3,3.71-8.81,2.67-12.7A11,11,0,0,1,107.91,166.25Z"/><path class="cls-18" d="M127.92,163.38a20.87,20.87,0,0,0-29.57-13.51,20.35,20.35,0,0,0-4.79,3.33,12.13,12.13,0,0,0-.28,4.87,11.47,11.47,0,0,1,6-3.75,19.58,19.58,0,0,0,.76,6.31c1.3-1.54,2.74-2.62,4-4.16a22.45,22.45,0,0,1,3.82,9.78,11,11,0,0,0,2.61-2.39l-.06-.21h.22Z"/><path class="cls-19" d="M118.61,159.29a8.14,8.14,0,0,0-6-2.08c.31-.75.55-1.71.87-2.47a7.89,7.89,0,0,0-3,8.91l10.67-.17A7.79,7.79,0,0,0,118.61,159.29Z"/><path class="cls-18" d="M153.66,151.36l-.91-.88H127.52l-.75.72a49.46,49.46,0,0,0-9,11.86l-.26.48,22.6-.36,22.3-.35h0A49.48,49.48,0,0,0,153.66,151.36Z"/><path class="cls-20" d="M140.13,155.25a13.4,13.4,0,0,0-12.21,8.13l24.25-.39A13.39,13.39,0,0,0,140.13,155.25Z"/><path class="cls-19" d="M152.75,150.48H127.52l-.75.72c-.69.67-1.35,1.37-2,2.08a23.91,23.91,0,0,0,14.42,4.84h1.89a23.88,23.88,0,0,0,14.43-4.85c-.6-.65-1.21-1.29-1.85-1.91Z"/><path class="cls-21" d="M109.17,93.54h0A85.55,85.55,0,0,0,111,122.86l.64,2.67,16.32-16.37-2.8-4.64a37,37,0,0,0-12.66-12.6h0A2.18,2.18,0,0,0,109.17,93.54Z"/><path class="cls-22" d="M114.77,103.07a32.56,32.56,0,0,1,7,8.37l1.44,2.44,1.34-1.33-3.8-6.26A33.78,33.78,0,0,0,110.9,95.9a82,82,0,0,0,.83,20.82c.12.67,1.5,6.37,1.63,7l1.91-1.91a101.53,101.53,0,0,1-2.18-18A1,1,0,0,1,114.77,103.07Z"/><path class="cls-23" d="M121.76,111.44a32.56,32.56,0,0,0-7-8.37,1,1,0,0,0-1.68.79,101.53,101.53,0,0,0,2.18,18l7.93-8Z"/><path class="cls-21" d="M170.91,93.54h0a85.06,85.06,0,0,1-1.79,29.32l-.63,2.67-16.32-16.37,2.8-4.64a37.11,37.11,0,0,1,12.65-12.6h0A2.18,2.18,0,0,1,170.91,93.54Z"/><path class="cls-22" d="M165.31,103.07a32.73,32.73,0,0,0-7,8.37l-1.45,2.44-1.33-1.33,3.8-6.26a33.86,33.86,0,0,1,9.83-10.39,81.52,81.52,0,0,1-.82,20.82c-.12.67-1.5,6.37-1.63,7l-1.91-1.91a100.6,100.6,0,0,0,2.17-18A1,1,0,0,0,165.31,103.07Z"/><path class="cls-23" d="M158.33,111.44a32.73,32.73,0,0,1,7-8.37,1,1,0,0,1,1.68.79,100.6,100.6,0,0,1-2.17,18l-7.94-8Z"/><path class="cls-18" d="M141.47,106.1H138.8A30.35,30.35,0,0,0,114,118.93l-1.86,2.62a15,15,0,0,0,0,17.33L114,141.5a30.37,30.37,0,0,0,24.79,12.83h2.67a30.37,30.37,0,0,0,24.79-12.83l1.85-2.62a15,15,0,0,0,0-17.33l-1.85-2.62A30.35,30.35,0,0,0,141.47,106.1Z"/><path class="cls-4" d="M132.8,126.16a2.8,2.8,0,1,1-2.8-2.79A2.8,2.8,0,0,1,132.8,126.16Z"/><path class="cls-21" d="M151.72,138.49a.68.68,0,0,0-1,0l-2.45,2.45a4.43,4.43,0,0,1-7.57-3.14v-.28a.69.69,0,0,0-1.37,0v.28a4.44,4.44,0,0,1-7.58,3.14l-2.45-2.45a.68.68,0,0,0-1,1l2.45,2.45a5.79,5.79,0,0,0,9.22-1.38,5.82,5.82,0,0,0,5.12,3.08,5.75,5.75,0,0,0,4.11-1.7l2.45-2.45A.67.67,0,0,0,151.72,138.49Z"/><path class="cls-21" d="M131.88,119.73a3.11,3.11,0,0,0,1.82.18,1.54,1.54,0,0,0,.82-1.76,2.89,2.89,0,0,0-1.24-1.66,5.56,5.56,0,0,0-6.55.23,3.24,3.24,0,0,0-1,1.33,1.62,1.62,0,0,0,1.89,2.23C129.07,119.79,130.29,119.32,131.88,119.73Z"/><path class="cls-4" d="M147.29,126.16a2.8,2.8,0,1,0,2.8-2.79A2.8,2.8,0,0,0,147.29,126.16Z"/><path class="cls-21" d="M148.21,119.73a3.11,3.11,0,0,1-1.82.18,1.54,1.54,0,0,1-.82-1.76,2.89,2.89,0,0,1,1.24-1.66,5.56,5.56,0,0,1,6.55.23,3.24,3.24,0,0,1,1,1.33,1.62,1.62,0,0,1-1.89,2.23C151,119.79,149.79,119.32,148.21,119.73Z"/><path class="cls-24" d="M127.92,135.3a59.72,59.72,0,0,0-15.69,0A58.88,58.88,0,0,0,127.92,135.3Z"/><path class="cls-24" d="M127.6,133.55a59.09,59.09,0,0,0-15-4.45A59.38,59.38,0,0,0,127.6,133.55Z"/><path class="cls-24" d="M127.6,137.05a59.4,59.4,0,0,0-15,4.46A59.11,59.11,0,0,0,127.6,137.05Z"/><path class="cls-24" d="M152.17,135.3a59.72,59.72,0,0,1,15.69,0A58.88,58.88,0,0,1,152.17,135.3Z"/><path class="cls-24" d="M152.49,133.55a59,59,0,0,1,15-4.45A59.3,59.3,0,0,1,152.49,133.55Z"/><path class="cls-24" d="M152.49,137.05a59.32,59.32,0,0,1,15,4.46A59,59,0,0,1,152.49,137.05Z"/><path class="cls-4" d="M143.78,132.57h-7.47c-1.34,0-2,1.37-1.13,2.21l1.64,1.53a4.89,4.89,0,0,0,6.44,0l1.65-1.53C145.82,133.94,145.12,132.57,143.78,132.57Z"/><path class="cls-21" d="M129.79,109.54a2.11,2.11,0,0,0,1.88.91,8,8,0,0,0,2.12-.49,21.65,21.65,0,0,1,12.58-.07,6.16,6.16,0,0,0,1.56.35,1.8,1.8,0,0,0,1.45-.55,1.75,1.75,0,0,0-.11-2.12,4.37,4.37,0,0,0-1.85-1.2,26.31,26.31,0,0,0-3.67-.27h-7.24a26.38,26.38,0,0,0-3.08.18,17.08,17.08,0,0,0-1.65.71C130.85,107.44,129,108.14,129.79,109.54Z"/><path class="cls-21" d="M134,113.48a1.18,1.18,0,0,0,1.07.52,4.32,4.32,0,0,0,1.22-.28,12.47,12.47,0,0,1,7.21,0,3.38,3.38,0,0,0,.89.2,1.06,1.06,0,0,0,.83-.31,1,1,0,0,0-.07-1.22,2.51,2.51,0,0,0-1.09-.7,11.25,11.25,0,0,0-8.92.37C134.6,112.28,133.53,112.68,134,113.48Z"/><path class="cls-17" d="M129.33,164.69c0,3.08-3.11,5.57-7,5.57s-7-2.49-7-5.57,3.12-5.57,7-5.57S129.33,161.61,129.33,164.69Z"/><path class="cls-17" d="M150.93,164.69c0,3.08,3.12,5.57,7,5.57s7-2.49,7-5.57-3.12-5.57-7-5.57S150.93,161.61,150.93,164.69Z"/><path class="cls-4" d="M236.86,80.71h0a2.53,2.53,0,0,1,3.66-2.27l12.73,6.36a26.62,26.62,0,0,1,14.34,19.34l4.24,24.79a2.39,2.39,0,0,1-3.47,2.52l-14.46-7.64Z"/><path class="cls-25" d="M203,131.73l1.49,7.1a12,12,0,0,1-5.23,12.53l-4.86,3.13a38.18,38.18,0,0,0-7.09,5.91l-1.94,2.06,83.33-1.32-10.46-11.31a22.42,22.42,0,0,1-5.3-9.71L250.07,129Z"/><path class="cls-26" d="M228.1,149.14,243,145.42a17.18,17.18,0,0,0,9.63-6.44l-2.58-10L203,131.73l1.07,5.1L216,146.47A13.86,13.86,0,0,0,228.1,149.14Z"/><path class="cls-25" d="M192.48,88.24c7.85-4.56,23.85-8.83,35-10.31a14.08,14.08,0,0,1,13.69,6.29l16.43,25.43a13.88,13.88,0,0,1,.56,14.12l-2.11,3.91a20.48,20.48,0,0,1-13.4,10.24l-13.54,3.15a20.53,20.53,0,0,1-13.41-1.42l-20-9.44Z"/><path class="cls-27" d="M257.6,109.65l-1.54-2.39a74.1,74.1,0,0,0-16,1A8.31,8.31,0,0,1,231,103a127.8,127.8,0,0,0-12.5-23.48c-1.78.38-3.6.81-5.41,1.27,3.41,5.76,7.33,15.56,9.63,24.52a7.93,7.93,0,0,1-4.42,9.26c-5.25,2.33-9.75,5.11-12.78,8.2a3.2,3.2,0,0,0-.73,3.29l1.78,5.16a12.35,12.35,0,0,0,6.39,7.12l2.78,1.32a20.53,20.53,0,0,0,13.41,1.42l13.54-3.15a20.48,20.48,0,0,0,13.4-10.24l2.11-3.91A13.88,13.88,0,0,0,257.6,109.65Z"/><circle class="cls-4" cx="209.75" cy="104.31" r="2.94"/><path class="cls-4" d="M241.68,97.62a2.94,2.94,0,1,1-2.94-3A2.94,2.94,0,0,1,241.68,97.62Z"/><path class="cls-27" d="M208.41,93.75a12.79,12.79,0,0,0,1.76-.14,2.3,2.3,0,0,0,1.48-.88,2.08,2.08,0,0,0-.39-2.52,4.2,4.2,0,0,0-2.49-1.06,8.87,8.87,0,0,0-6.81,2,4.84,4.84,0,0,0-1.38,1.73,2.6,2.6,0,0,0,0,2.15,1.94,1.94,0,0,0,1.65,1.06c.65,0,1.19-.63,1.73-1A9.8,9.8,0,0,1,208.41,93.75Z"/><path class="cls-27" d="M233.76,87.35a8.37,8.37,0,0,1-1.36.54,1.89,1.89,0,0,1-1.49-.23,2.41,2.41,0,0,1-.85-2.39,3.15,3.15,0,0,1,1.35-1.88,6.48,6.48,0,0,1,5.92-.76,4.87,4.87,0,0,1,1.8,1,3.12,3.12,0,0,1,1,1.91,1.64,1.64,0,0,1-.74,1.57c-.49.22-1.16-.13-1.71-.21A7.17,7.17,0,0,0,233.76,87.35Z"/><path class="cls-4" d="M211.07,124.64l8.29,2.53a10.74,10.74,0,0,0,10.43-2.41l2-1.84a4,4,0,0,0,1-4.4l-1.23-3.13,1.45-.51,1.63,3.69a4,4,0,0,0,3.08,2.35l2.48.37a10.71,10.71,0,0,0,10.75-5.05l2.27-3.76L249.9,123a13.22,13.22,0,0,1-9.17,8.82L235,133.35a13.24,13.24,0,0,1-9.64-1.09Z"/><path class="cls-28" d="M249.43,137.23a28.5,28.5,0,0,0-1.88-6.48,13.51,13.51,0,0,0-1.2-2.08,9.69,9.69,0,0,0-3.17-2.94c-3-1.66-6.78-1.26-9.9.15a11,11,0,0,0-5.14,4.37,7.23,7.23,0,0,0-.88,2.8,13,13,0,0,0,5.81.67h0a63.56,63.56,0,0,1,1.19,8.71c.29,2.83,1.08,5.78,3.17,7.7a7.35,7.35,0,0,0,10.47-.53,9.73,9.73,0,0,0,2.21-5.95A25.82,25.82,0,0,0,249.43,137.23Z"/><path class="cls-4" d="M234.88,108.46A35.72,35.72,0,0,0,223.15,112a1.74,1.74,0,0,0,.16,3.18,19.67,19.67,0,0,0,4.3,1.19,9.42,9.42,0,0,0,4.54-.25,7.68,7.68,0,0,0,3.58-3.07,10.77,10.77,0,0,0,1-2.27A1.75,1.75,0,0,0,234.88,108.46Z"/><path class="cls-4" d="M181.84,93l7.7-7.18A2.66,2.66,0,0,1,194,87.42l3.77,30.37a29.44,29.44,0,0,1-5.05,20.42l-2.34,3.37a2.59,2.59,0,0,1-4.59-.68l-9.05-28.25A19,19,0,0,1,181.84,93Z"/><path class="cls-4" d="M206.08,162.13h0a8.7,8.7,0,0,1,7.55-5l7.89-.27a5.33,5.33,0,0,1,4.88,2.79l2.19,4a4.7,4.7,0,0,1-.22,4.85h0a4.69,4.69,0,0,1-3.1,2l-5.94,1a9.46,9.46,0,0,1-9.43-4Z"/><path class="cls-4" d="M257.16,162.13h0a8.72,8.72,0,0,1,7.55-5l7.9-.27a5.35,5.35,0,0,1,4.88,2.79l2.19,4a4.72,4.72,0,0,1-.22,4.85h0a4.73,4.73,0,0,1-3.1,2l-5.95,1a9.44,9.44,0,0,1-9.42-4Z"/><path class="cls-29" d="M300.6,306.5H5.63A2.56,2.56,0,0,1,3.07,304h0a2.56,2.56,0,0,1,2.56-2.56h295a2.56,2.56,0,0,1,2.55,2.56h0A2.55,2.55,0,0,1,300.6,306.5Z"/></g></svg>